# xmcd
#
# Track frame offsets:
#	150
#	27662
#	43727
#	60635
#	75915
#	87542
#	99987
#	117350
#	131960
#	147552
#	160887
#	180290
#	197747
#	217260
#	232810
#	249025
#
# Disc length: 3504 seconds
#
# Revision: 7
# Processed by: cddbd v1.5.2PL0 Copyright (c) Steve Scherf et al.
# Submitted via: EasyCDDAExtractor 15.3.0.1
#
DISCID=dc0dae10
DTITLE=Selena - All My Hits - Todos Mis Exitos Vol. 2
DYEAR=2000
DGENRE=Latin
TTITLE0=Enamorada De Ti (Club Mix)
TTITLE1=No Quiero Saber
TTITLE2=Techno Cumbia
TTITLE3=A Million To One
TTITLE4=Fotos Y Recuerdos
TTITLE5=Si Una Vez
TTITLE6=No Me Queda Mas (Live Version)
TTITLE7=Siempre Hace Frio
TTITLE8=El Chico Del Apartamento 512
TTITLE9=Muñequito De Trapo
TTITLE10=Captive Heart
TTITLE11=Tu Robaste Mi Corazon (Con Pete Astudillo)
TTITLE12=Bidi Bidi Bom Bom (Live Version)
TTITLE13=Aunque No Salga El Sol
TTITLE14=Yo Fui Aquella
TTITLE15=Cien Años
EXTD=
EXTT0=
EXTT1=
EXTT2=
EXTT3=
EXTT4=
EXTT5=
EXTT6=
EXTT7=
EXTT8=
EXTT9=
EXTT10=
EXTT11=
EXTT12=
EXTT13=
EXTT14=
EXTT15=
PLAYORDER=
